# ProBuilder 4.5.2
# https://unity3d.com/unity/features/worldbuilding/probuilder
# 11/6/2021 7:19:06 PM

mtllib ./door_scale.mtl
o door scale

g Cube
v -60.64 11.05 -134.26
v -64.64 11.05 -134.26
v -60.64 17.05 -134.26
v -64.64 17.05 -134.26
v -64.64 11.05 -136.26
v -64.64 17.05 -136.26
v -60.64 11.05 -136.26
v -60.64 17.05 -136.26

vt 0 0
vt -4 0
vt 0 6
vt -4 6
vt -2 0
vt -2 6
vt 4 0
vt 4 6
vt 2 0
vt 2 6
vt 0 -2
vt 4 -2
vt -4 -2

vn 0 0 1
vn -1 0 0
vn 0 0 -1
vn 1 0 0
vn 0 1 0
vn 0 -1 0

usemtl ProBuilderDefault
f 3/3/1 4/4/1 2/2/1 1/1/1
f 4/3/2 6/6/2 5/5/2 2/1/2
f 6/8/3 8/3/3 7/1/3 5/7/3
f 8/10/4 3/3/4 1/1/4 7/9/4
f 8/11/5 6/12/5 4/7/5 3/1/5
f 1/1/6 2/2/6 5/13/6 7/11/6

